<!DOCTYPE svg PUBLIC "-//W3C//DTD SVG 1.1//EN" "http://www.w3.org/Graphics/SVG/1.1/DTD/svg11.dtd">

<!-- Uploaded to: SVG Repo, www.svgrepo.com, Transformed by: SVG Repo Mixer Tools -->
<svg fill="#433e2f" height="255px" width="255px" version="1.1" id="Layer_1" xmlns="http://www.w3.org/2000/svg" xmlns:xlink="http://www.w3.org/1999/xlink" viewBox="-115.83 -115.83 735.27 735.27" xml:space="preserve" stroke="#433e2f" stroke-width="0.005036070000000001" transform="matrix(-1, 0, 0, 1, 0, 0)">

<g id="SVGRepo_bgCarrier" stroke-width="0"/>

<g id="SVGRepo_tracerCarrier" stroke-linecap="round" stroke-linejoin="round" stroke="#ffc362" stroke-width="41.295774"> <g> <g> <g> <path d="M251.8,235.016c-74.047,0-134.295,60.248-134.295,134.295S177.753,503.607,251.8,503.607 c74.055,0,134.295-60.248,134.295-134.295S325.855,235.016,251.8,235.016z M220.165,256.252 c-12.095,14.588-21.747,29.965-28.84,45.912H155.51C170.912,280.14,193.65,263.688,220.165,256.252z M145.791,318.951h39.08 c-4.457,13.69-7.109,27.724-7.856,41.967H134.72C135.786,345.978,139.647,331.835,145.791,318.951z M134.72,377.705h42.278 c0.747,14.219,3.433,28.252,7.923,41.967h-39.13C139.647,406.788,135.786,392.645,134.72,377.705z M155.51,436.459h35.899 c7.109,15.914,16.779,31.299,28.882,45.946C193.726,474.985,170.937,458.517,155.51,436.459z M243.406,482.975 c-13.95-14.722-25.088-30.309-33.238-46.517h33.238V482.975z M243.406,419.672h-40.582c-5.044-13.706-7.949-27.749-8.788-41.967 h49.37V419.672z M243.406,360.918h-49.379c0.839-14.252,3.702-28.294,8.704-41.967h40.675V360.918z M243.406,302.164h-33.356 c8.158-16.283,19.338-31.895,33.356-46.567V302.164z M260.193,255.06c14.26,14.831,25.617,30.619,33.876,47.104h-33.876V255.06z M260.193,318.951h41.195c5.003,13.673,7.865,27.715,8.696,41.967h-49.891V318.951z M260.193,377.705h49.891 c-0.839,14.219-3.743,28.261-8.788,41.967h-41.103V377.705z M260.193,436.459h33.758c-8.251,16.409-19.557,32.181-33.758,47.062 V436.459z M283.964,482.237c12.036-14.596,21.663-29.923,28.747-45.778h35.387C332.797,458.341,310.26,474.733,283.964,482.237z M357.809,419.672h-38.618c4.499-13.715,7.176-27.749,7.932-41.967h41.766C367.823,392.645,363.961,406.788,357.809,419.672z M368.888,360.918h-41.783c-0.747-14.244-3.399-28.278-7.856-41.967h38.559C363.961,331.835,367.823,345.978,368.888,360.918z M312.795,302.164c-7.067-15.889-16.669-31.207-28.706-45.744c26.238,7.521,48.732,23.896,64.008,45.744H312.795z"/> <path d="M134.295,41.967c-9.258,0-16.787,7.529-16.787,16.787c0,9.258,7.529,16.787,16.787,16.787 c9.258,0,16.787-7.529,16.787-16.787C151.082,49.496,143.553,41.967,134.295,41.967z"/> <path d="M58.754,41.967c-9.258,0-16.787,7.529-16.787,16.787c0,9.258,7.529,16.787,16.787,16.787 c9.258,0,16.787-7.529,16.787-16.787C75.541,49.496,68.012,41.967,58.754,41.967z"/> <path d="M209.836,41.967c-9.258,0-16.787,7.529-16.787,16.787c0,9.258,7.529,16.787,16.787,16.787 c9.258,0,16.787-7.529,16.787-16.787C226.623,49.496,219.094,41.967,209.836,41.967z"/> <path d="M479.501,0H24.106C10.819,0,0,10.819,0,24.106v76.615h503.607V24.106C503.607,10.819,492.787,0,479.501,0z M58.754,92.328c-18.516,0-33.574-15.058-33.574-33.574S40.238,25.18,58.754,25.18s33.574,15.058,33.574,33.574 S77.27,92.328,58.754,92.328z M134.295,92.328c-18.516,0-33.574-15.058-33.574-33.574s15.058-33.574,33.574-33.574 s33.574,15.058,33.574,33.574S152.811,92.328,134.295,92.328z M209.836,92.328c-18.516,0-33.574-15.058-33.574-33.574 S191.32,25.18,209.836,25.18s33.574,15.058,33.574,33.574S228.352,92.328,209.836,92.328z"/> <path d="M0,350.951c0,14.756,12.003,26.758,26.758,26.758h74.391c-0.159-2.803-0.428-5.565-0.428-8.393 c0-83.313,67.777-151.09,151.082-151.09s151.082,67.777,151.082,151.09c0,2.829-0.269,5.59-0.428,8.393h74.399 c14.747,0,26.75-12.003,26.75-26.758V117.512H0V350.951z"/> </g> </g> </g> </g>

<g id="SVGRepo_iconCarrier"> <g> <g> <g> <path d="M251.8,235.016c-74.047,0-134.295,60.248-134.295,134.295S177.753,503.607,251.8,503.607 c74.055,0,134.295-60.248,134.295-134.295S325.855,235.016,251.8,235.016z M220.165,256.252 c-12.095,14.588-21.747,29.965-28.84,45.912H155.51C170.912,280.14,193.65,263.688,220.165,256.252z M145.791,318.951h39.08 c-4.457,13.69-7.109,27.724-7.856,41.967H134.72C135.786,345.978,139.647,331.835,145.791,318.951z M134.72,377.705h42.278 c0.747,14.219,3.433,28.252,7.923,41.967h-39.13C139.647,406.788,135.786,392.645,134.72,377.705z M155.51,436.459h35.899 c7.109,15.914,16.779,31.299,28.882,45.946C193.726,474.985,170.937,458.517,155.51,436.459z M243.406,482.975 c-13.95-14.722-25.088-30.309-33.238-46.517h33.238V482.975z M243.406,419.672h-40.582c-5.044-13.706-7.949-27.749-8.788-41.967 h49.37V419.672z M243.406,360.918h-49.379c0.839-14.252,3.702-28.294,8.704-41.967h40.675V360.918z M243.406,302.164h-33.356 c8.158-16.283,19.338-31.895,33.356-46.567V302.164z M260.193,255.06c14.26,14.831,25.617,30.619,33.876,47.104h-33.876V255.06z M260.193,318.951h41.195c5.003,13.673,7.865,27.715,8.696,41.967h-49.891V318.951z M260.193,377.705h49.891 c-0.839,14.219-3.743,28.261-8.788,41.967h-41.103V377.705z M260.193,436.459h33.758c-8.251,16.409-19.557,32.181-33.758,47.062 V436.459z M283.964,482.237c12.036-14.596,21.663-29.923,28.747-45.778h35.387C332.797,458.341,310.26,474.733,283.964,482.237z M357.809,419.672h-38.618c4.499-13.715,7.176-27.749,7.932-41.967h41.766C367.823,392.645,363.961,406.788,357.809,419.672z M368.888,360.918h-41.783c-0.747-14.244-3.399-28.278-7.856-41.967h38.559C363.961,331.835,367.823,345.978,368.888,360.918z M312.795,302.164c-7.067-15.889-16.669-31.207-28.706-45.744c26.238,7.521,48.732,23.896,64.008,45.744H312.795z"/> <path d="M134.295,41.967c-9.258,0-16.787,7.529-16.787,16.787c0,9.258,7.529,16.787,16.787,16.787 c9.258,0,16.787-7.529,16.787-16.787C151.082,49.496,143.553,41.967,134.295,41.967z"/> <path d="M58.754,41.967c-9.258,0-16.787,7.529-16.787,16.787c0,9.258,7.529,16.787,16.787,16.787 c9.258,0,16.787-7.529,16.787-16.787C75.541,49.496,68.012,41.967,58.754,41.967z"/> <path d="M209.836,41.967c-9.258,0-16.787,7.529-16.787,16.787c0,9.258,7.529,16.787,16.787,16.787 c9.258,0,16.787-7.529,16.787-16.787C226.623,49.496,219.094,41.967,209.836,41.967z"/> <path d="M479.501,0H24.106C10.819,0,0,10.819,0,24.106v76.615h503.607V24.106C503.607,10.819,492.787,0,479.501,0z M58.754,92.328c-18.516,0-33.574-15.058-33.574-33.574S40.238,25.18,58.754,25.18s33.574,15.058,33.574,33.574 S77.27,92.328,58.754,92.328z M134.295,92.328c-18.516,0-33.574-15.058-33.574-33.574s15.058-33.574,33.574-33.574 s33.574,15.058,33.574,33.574S152.811,92.328,134.295,92.328z M209.836,92.328c-18.516,0-33.574-15.058-33.574-33.574 S191.32,25.18,209.836,25.18s33.574,15.058,33.574,33.574S228.352,92.328,209.836,92.328z"/> <path d="M0,350.951c0,14.756,12.003,26.758,26.758,26.758h74.391c-0.159-2.803-0.428-5.565-0.428-8.393 c0-83.313,67.777-151.09,151.082-151.09s151.082,67.777,151.082,151.09c0,2.829-0.269,5.59-0.428,8.393h74.399 c14.747,0,26.75-12.003,26.75-26.758V117.512H0V350.951z"/> </g> </g> </g> </g>

</svg>