<svg fill="#ffc362" viewBox="0 0 64 64" data-name="Layer 1" id="Layer_1" xmlns="http://www.w3.org/2000/svg"><g id="SVGRepo_bgCarrier" stroke-width="0"></g><g id="SVGRepo_tracerCarrier" stroke-linecap="round" stroke-linejoin="round"></g><g id="SVGRepo_iconCarrier"><title></title><path d="M20,53a2,2,0,0,0-2,2h4A2,2,0,0,0,20,53Z"></path><path d="M24,49a2,2,0,0,0-2,2h4A2,2,0,0,0,24,49Z"></path><path d="M40,49a2,2,0,0,0-2,2h4A2,2,0,0,0,40,49Z"></path><path d="M8,62H56A24,24,0,0,0,8,62Zm21-7.04449A3.04445,3.04445,0,0,1,25.95557,58H17.0235a3.00173,3.00173,0,0,1-3.02008-2.83289,4,4,0,0,1,4.02826-4.167v-.00024A3.96846,3.96846,0,0,1,22,47v-.30194a3.6336,3.6336,0,0,1,3.31177-3.69312A3.5002,3.5002,0,0,1,29,46.5ZM35,46.5a3.5002,3.5002,0,0,1,3.68823-3.49506A3.6336,3.6336,0,0,1,42,46.69806V47a3.96846,3.96846,0,0,1,3.96832,3.99988v.00024a4,4,0,0,1,4.02826,4.167A3.00173,3.00173,0,0,1,46.9765,58H38.04443A3.04445,3.04445,0,0,1,35,54.95551Z"></path><path d="M46,56a2,2,0,0,0-4,0Z"></path><path d="M7,4a3,3,0,0,1,0,6,1,1,0,0,0-1,1v5H8V11.89941A5.00019,5.00019,0,1,0,2,7H4A3.00328,3.00328,0,0,1,7,4Z"></path><rect height="2" width="2" x="6" y="18"></rect><polygon points="51 17 41 13 41 27 51 31 51 17"></polygon><polygon points="52 31 62 27 62 13 52 17 52 31"></polygon><path d="M6.71332,35.3916A4.28544,4.28544,0,0,0,10.05975,37H21V25H8v7H4ZM18,33.5H15v-1h3Zm-7-5h7v1H11Zm0,4h2v1H11Z"></path><path d="M30,4a5.99672,5.99672,0,0,0-1,11.91V24h2V15.91A5.99672,5.99672,0,0,0,30,4Zm0,3.5A2.50294,2.50294,0,0,0,27.5,10h-1A3.50424,3.50424,0,0,1,30,6.5Z"></path></g></svg>