<svg fill="#433e2f" width="198px" height="198px" viewBox="-70.72 -70.72 685.44 685.44" xmlns="http://www.w3.org/2000/svg" stroke="#433e2f"><g id="SVGRepo_bgCarrier" stroke-width="0"></g><g id="SVGRepo_tracerCarrier" stroke-linecap="round" stroke-linejoin="round" stroke="#fcc469" stroke-width="63.104"><path d="M288 336h76c11 0 20 9.01 20 20v120c0 10.99-9.01 20-20 20H116c-10.99 0-20-9-20-20v-92H20c-11 0-20-9-20-20V244c0-11 9-20 20-20h248c11 0 20 9.01 20 20v92zM176 64v64h320V64H176zm-32 320v64h192v-64H144zM48 272v64h192v-64H48zM148 16h376c11 0 20 9 20 20v120c0 11-9 20-20 20H148c-11 0-20-9-20-20V36c0-11 9-20 20-20z"></path></g><g id="SVGRepo_iconCarrier"><path d="M288 336h76c11 0 20 9.01 20 20v120c0 10.99-9.01 20-20 20H116c-10.99 0-20-9-20-20v-92H20c-11 0-20-9-20-20V244c0-11 9-20 20-20h248c11 0 20 9.01 20 20v92zM176 64v64h320V64H176zm-32 320v64h192v-64H144zM48 272v64h192v-64H48zM148 16h376c11 0 20 9 20 20v120c0 11-9 20-20 20H148c-11 0-20-9-20-20V36c0-11 9-20 20-20z"></path></g></svg>