<svg fill="#433e2f" height="212px" width="212px" version="1.1" id="Layer_1" xmlns="http://www.w3.org/2000/svg" xmlns:xlink="http://www.w3.org/1999/xlink" viewBox="-107.52 -107.52 727.04 727.04" xml:space="preserve" stroke="#433e2f"><g id="SVGRepo_bgCarrier" stroke-width="0"></g><g id="SVGRepo_tracerCarrier" stroke-linecap="round" stroke-linejoin="round" stroke="#ffc362" stroke-width="23.552"> <g> <g> <path d="M445.055,123.568c-12.595-12.22-28.416-20.261-45.608-23.364c-3.867-24.924-15.987-47.865-34.975-65.742 C341.899,13.212,312.105,1.51,280.579,1.51c-37.307,0-71.871,16.418-94.583,44.429c-4.189-0.578-8.428-0.868-12.686-0.868 c-21.31,0-41.948,7.379-58.114,20.779c-13.722,11.375-23.519,26.457-28.178,43.154c-27.943,14.677-45.551,42.928-45.551,74.212 c0,36.188,23.64,67.124,56.751,79.123v35.861h33.391v-30.526h11.381c-0.02,0.599-0.042,1.198-0.042,1.8 c0,21.835,13.308,40.617,32.237,48.669c0.89,13.561,7.341,25.622,17.091,33.928v22.896h33.391v-11.285 c11.592-0.42,22.161-4.897,30.333-12.056c8.172,7.159,18.74,11.637,30.333,12.056v11.285h33.391v-22.896 c9.75-8.306,16.2-20.367,17.091-33.928c18.93-8.052,32.237-26.834,32.237-48.669c0-0.602-0.022-1.201-0.042-1.8h11.382v30.525 h33.391v-35.86c33.112-11.998,56.751-42.933,56.751-79.123C470.532,160.693,461.484,139.509,445.055,123.568z M239.304,314.913 c0,8.504-6.919,15.422-15.422,15.422c-6.527,0-12.107-4.081-14.355-9.821c9.716-2.618,18.6-7.979,25.469-15.564l-24.75-22.416 c-3.741,4.132-8.869,6.407-14.436,6.407c-10.736,0-19.469-8.734-19.469-19.469c0-0.117,0.014-0.233,0.017-0.349 c6.026,2.394,12.585,3.725,19.453,3.725v-33.391c-10.736,0-19.469-8.734-19.469-19.469c0-6.647,3.405-12.582,8.583-16.105 c5.473,7.279,12.966,13.059,21.817,16.38l11.728-31.264c-5.987-2.246-10.008-8.053-10.008-14.45 c0-8.505,6.92-15.423,15.423-15.423s15.421,6.92,15.421,15.424V314.913z M316.192,288.942c-5.567,0-10.694-2.275-14.436-6.407 l-24.75,22.416c6.869,7.583,15.753,12.946,25.469,15.564c-2.248,5.74-7.828,9.821-14.355,9.821 c-8.506-0.001-15.424-6.92-15.424-15.423V174.549c0-8.505,6.919-15.423,15.422-15.423c8.504,0,15.423,6.919,15.423,15.423 c0,6.398-4.021,12.205-10.008,14.45l11.728,31.264c8.851-3.32,16.344-9.1,21.817-16.38c5.178,3.523,8.583,9.458,8.583,16.105 c0,10.735-8.734,19.469-19.469,19.469v33.391c6.869,0,13.428-1.331,19.454-3.725c0.002,0.117,0.017,0.232,0.017,0.349 C335.662,280.208,326.928,288.942,316.192,288.942z M383.292,234.282h-16.219c1.28-4.55,1.98-9.341,1.98-14.294 c0-21.634-13.254-40.546-32.236-48.652c-1.662-25.423-22.862-45.601-48.698-45.601c-12.291,0-23.528,4.577-32.118,12.102 c-8.592-7.525-19.827-12.102-32.118-12.102c-25.836,0-47.036,20.178-48.698,45.601c-18.982,8.106-32.236,27.018-32.236,48.652 c0,4.954,0.7,9.744,1.98,14.294h-16.217c-29.695,0-53.853-22.908-53.853-51.065c0-20.558,12.906-39.026,32.878-47.048l8.737-3.509 l1.517-9.293c4.182-25.6,27.963-44.905,55.319-44.905c5.258,0,10.457,0.689,15.452,2.046l11.647,3.165l6.657-10.066 c16.028-24.237,43.51-38.705,73.513-38.705c22.985,0,44.65,8.479,61.005,23.874c16.15,15.204,25.31,35.469,25.793,57.062 l0.361,16.154l16.157,0.168c29.361,0.305,53.247,23.21,53.247,51.058C437.142,211.374,412.986,234.282,383.292,234.282z"></path> </g> </g> <g> <g> <path d="M98.218,331.592v16.696H83.404c-6.552-15.653-22.026-26.68-40.028-26.68C19.458,321.608,0,341.066,0,364.983 c0,23.917,19.457,43.375,43.375,43.375c18.003,0,33.476-11.027,40.028-26.68h48.206v-50.087H98.218z M43.375,374.966 c-5.505,0-9.984-4.479-9.984-9.984s4.478-9.984,9.984-9.984s9.984,4.479,9.984,9.984S48.88,374.966,43.375,374.966z"></path> </g> </g> <g> <g> <path d="M468.625,321.608c-18.003,0-33.476,11.027-40.028,26.68h-14.815v-16.696H380.39v50.087h48.206 c6.552,15.653,22.026,26.68,40.028,26.68c23.917,0,43.375-19.458,43.375-43.375C512,341.066,492.543,321.608,468.625,321.608z M468.625,374.966c-5.505,0-9.984-4.479-9.984-9.984s4.478-9.984,9.984-9.984s9.984,4.479,9.984,9.984 S474.131,374.966,468.625,374.966z"></path> </g> </g> <g> <g> <path d="M225.667,427.086v-18.729h-33.391v18.729c-15.653,6.554-26.68,22.026-26.68,40.028c0,23.917,19.457,43.375,43.375,43.375 c23.918,0,43.375-19.458,43.375-43.375C252.347,449.112,241.32,433.64,225.667,427.086z M208.972,477.1 c-5.505,0-9.984-4.479-9.984-9.984s4.478-9.984,9.984-9.984s9.984,4.479,9.984,9.984C218.956,472.621,214.477,477.1,208.972,477.1 z"></path> </g> </g> <g> <g> <path d="M319.724,427.086v-18.729h-33.391v18.729c-15.653,6.554-26.68,22.026-26.68,40.028c0,23.917,19.457,43.375,43.375,43.375 c23.918,0,43.375-19.458,43.375-43.375C346.404,449.112,335.377,433.64,319.724,427.086z M303.028,477.1 c-5.505,0-9.984-4.479-9.984-9.984s4.478-9.984,9.984-9.984s9.984,4.479,9.984,9.984C313.012,472.621,308.533,477.1,303.028,477.1 z"></path> </g> </g> </g><g id="SVGRepo_iconCarrier"> <g> <g> <path d="M445.055,123.568c-12.595-12.22-28.416-20.261-45.608-23.364c-3.867-24.924-15.987-47.865-34.975-65.742 C341.899,13.212,312.105,1.51,280.579,1.51c-37.307,0-71.871,16.418-94.583,44.429c-4.189-0.578-8.428-0.868-12.686-0.868 c-21.31,0-41.948,7.379-58.114,20.779c-13.722,11.375-23.519,26.457-28.178,43.154c-27.943,14.677-45.551,42.928-45.551,74.212 c0,36.188,23.64,67.124,56.751,79.123v35.861h33.391v-30.526h11.381c-0.02,0.599-0.042,1.198-0.042,1.8 c0,21.835,13.308,40.617,32.237,48.669c0.89,13.561,7.341,25.622,17.091,33.928v22.896h33.391v-11.285 c11.592-0.42,22.161-4.897,30.333-12.056c8.172,7.159,18.74,11.637,30.333,12.056v11.285h33.391v-22.896 c9.75-8.306,16.2-20.367,17.091-33.928c18.93-8.052,32.237-26.834,32.237-48.669c0-0.602-0.022-1.201-0.042-1.8h11.382v30.525 h33.391v-35.86c33.112-11.998,56.751-42.933,56.751-79.123C470.532,160.693,461.484,139.509,445.055,123.568z M239.304,314.913 c0,8.504-6.919,15.422-15.422,15.422c-6.527,0-12.107-4.081-14.355-9.821c9.716-2.618,18.6-7.979,25.469-15.564l-24.75-22.416 c-3.741,4.132-8.869,6.407-14.436,6.407c-10.736,0-19.469-8.734-19.469-19.469c0-0.117,0.014-0.233,0.017-0.349 c6.026,2.394,12.585,3.725,19.453,3.725v-33.391c-10.736,0-19.469-8.734-19.469-19.469c0-6.647,3.405-12.582,8.583-16.105 c5.473,7.279,12.966,13.059,21.817,16.38l11.728-31.264c-5.987-2.246-10.008-8.053-10.008-14.45 c0-8.505,6.92-15.423,15.423-15.423s15.421,6.92,15.421,15.424V314.913z M316.192,288.942c-5.567,0-10.694-2.275-14.436-6.407 l-24.75,22.416c6.869,7.583,15.753,12.946,25.469,15.564c-2.248,5.74-7.828,9.821-14.355,9.821 c-8.506-0.001-15.424-6.92-15.424-15.423V174.549c0-8.505,6.919-15.423,15.422-15.423c8.504,0,15.423,6.919,15.423,15.423 c0,6.398-4.021,12.205-10.008,14.45l11.728,31.264c8.851-3.32,16.344-9.1,21.817-16.38c5.178,3.523,8.583,9.458,8.583,16.105 c0,10.735-8.734,19.469-19.469,19.469v33.391c6.869,0,13.428-1.331,19.454-3.725c0.002,0.117,0.017,0.232,0.017,0.349 C335.662,280.208,326.928,288.942,316.192,288.942z M383.292,234.282h-16.219c1.28-4.55,1.98-9.341,1.98-14.294 c0-21.634-13.254-40.546-32.236-48.652c-1.662-25.423-22.862-45.601-48.698-45.601c-12.291,0-23.528,4.577-32.118,12.102 c-8.592-7.525-19.827-12.102-32.118-12.102c-25.836,0-47.036,20.178-48.698,45.601c-18.982,8.106-32.236,27.018-32.236,48.652 c0,4.954,0.7,9.744,1.98,14.294h-16.217c-29.695,0-53.853-22.908-53.853-51.065c0-20.558,12.906-39.026,32.878-47.048l8.737-3.509 l1.517-9.293c4.182-25.6,27.963-44.905,55.319-44.905c5.258,0,10.457,0.689,15.452,2.046l11.647,3.165l6.657-10.066 c16.028-24.237,43.51-38.705,73.513-38.705c22.985,0,44.65,8.479,61.005,23.874c16.15,15.204,25.31,35.469,25.793,57.062 l0.361,16.154l16.157,0.168c29.361,0.305,53.247,23.21,53.247,51.058C437.142,211.374,412.986,234.282,383.292,234.282z"></path> </g> </g> <g> <g> <path d="M98.218,331.592v16.696H83.404c-6.552-15.653-22.026-26.68-40.028-26.68C19.458,321.608,0,341.066,0,364.983 c0,23.917,19.457,43.375,43.375,43.375c18.003,0,33.476-11.027,40.028-26.68h48.206v-50.087H98.218z M43.375,374.966 c-5.505,0-9.984-4.479-9.984-9.984s4.478-9.984,9.984-9.984s9.984,4.479,9.984,9.984S48.88,374.966,43.375,374.966z"></path> </g> </g> <g> <g> <path d="M468.625,321.608c-18.003,0-33.476,11.027-40.028,26.68h-14.815v-16.696H380.39v50.087h48.206 c6.552,15.653,22.026,26.68,40.028,26.68c23.917,0,43.375-19.458,43.375-43.375C512,341.066,492.543,321.608,468.625,321.608z M468.625,374.966c-5.505,0-9.984-4.479-9.984-9.984s4.478-9.984,9.984-9.984s9.984,4.479,9.984,9.984 S474.131,374.966,468.625,374.966z"></path> </g> </g> <g> <g> <path d="M225.667,427.086v-18.729h-33.391v18.729c-15.653,6.554-26.68,22.026-26.68,40.028c0,23.917,19.457,43.375,43.375,43.375 c23.918,0,43.375-19.458,43.375-43.375C252.347,449.112,241.32,433.64,225.667,427.086z M208.972,477.1 c-5.505,0-9.984-4.479-9.984-9.984s4.478-9.984,9.984-9.984s9.984,4.479,9.984,9.984C218.956,472.621,214.477,477.1,208.972,477.1 z"></path> </g> </g> <g> <g> <path d="M319.724,427.086v-18.729h-33.391v18.729c-15.653,6.554-26.68,22.026-26.68,40.028c0,23.917,19.457,43.375,43.375,43.375 c23.918,0,43.375-19.458,43.375-43.375C346.404,449.112,335.377,433.64,319.724,427.086z M303.028,477.1 c-5.505,0-9.984-4.479-9.984-9.984s4.478-9.984,9.984-9.984s9.984,4.479,9.984,9.984C313.012,472.621,308.533,477.1,303.028,477.1 z"></path> </g> </g> </g></svg>