<svg xmlns="http://www.w3.org/2000/svg" xmlns:xlink="http://www.w3.org/1999/xlink" viewBox="0,0,255.99431,255.99431" width="100px" height="100px" fill-rule="nonzero"><g fill="#ffdb70" fill-rule="nonzero" stroke="none" stroke-width="1" stroke-linecap="butt" stroke-linejoin="miter" stroke-miterlimit="10" stroke-dasharray="" stroke-dashoffset="0" font-family="none" font-weight="none" font-size="none" text-anchor="none" style="mix-blend-mode: normal"><g transform="scale(5.12,5.12)"><path d="M20.13,32.5c-2.79,-1.69 -4.53,-4.77 -4.53,-8.04v-15.56c0,-1.63 0.39,-3.19 1.11,-4.57l-9.17,5.55c-2.8,1.69 -4.54,4.77 -4.54,8.04v14.15c0,1.59 0.42,3.14 1.16,4.5c0.69,1.12 1.67,2.06 2.88,2.74c2.53,1.42 5.51,1.36 7.98,-0.15l8.02,-4.9zM42.84,27.14l-8.44,-5.05v2.29c0,3.25 -1.72,6.33 -4.49,8.02l-13.84,8.47c-1.52,0.93 -3.19,1.42 -4.87,1.46l8.93,5.41c1.5,0.91 3.19,1.36 4.87,1.36c1.68,0 3.37,-0.45 4.87,-1.36l9.08,-5.5l3.52,-2.13c0.27,-0.16 0.53,-0.34 0.78,-0.54c0.08,-0.05 0.16,-0.11 0.23,-0.16c0.65,-0.53 1.23,-1.13 1.71,-1.79c0.02,-0.03 0.04,-0.06 0.06,-0.09c0.77,-1.19 1.2,-2.59 1.19,-4.06c-0.01,-2.62 -1.35,-4.99 -3.6,-6.33zM42.46,9.88l-9.57,-5.79l-3.02,-1.83c-0.42,-0.26 -0.86,-0.47 -1.31,-0.65c-0.49,-0.21 -1,-0.37 -1.51,-0.47c-1.84,-0.38 -3.76,-0.08 -5.46,0.89c-2.5,1.43 -3.99,3.99 -3.99,6.87v9.6l2.8,-1.65c2.84,-1.67 6.36,-1.66 9.19,0.03l14.28,8.54c1.29,0.78 2.35,1.81 3.12,3.02l0.01,-10.52c0,-3.27 -1.74,-6.35 -4.54,-8.04z"></path></g></g></svg>