<svg xmlns="http://www.w3.org/2000/svg" xmlns:xlink="http://www.w3.org/1999/xlink" viewBox="0,0,255.99431,255.99431" width="96px" height="96px" fill-rule="nonzero"><g fill="#ffdb70" fill-rule="nonzero" stroke="none" stroke-width="1" stroke-linecap="butt" stroke-linejoin="miter" stroke-miterlimit="10" stroke-dasharray="" stroke-dashoffset="0" font-family="none" font-weight="none" font-size="none" text-anchor="none" style="mix-blend-mode: normal"><g transform="scale(5.33333,5.33333)"><path d="M2.861,21.998h2.917c1.05,0 2.261,0.896 2.261,2c0,1.104 -1.21,2 -2.261,2h-2.917c-1.05,0 -1.861,-0.895 -1.861,-2c0,-1.105 0.811,-2 1.861,-2zM43.021,20.998c-1.401,0 -2.521,1.343 -2.521,3c0,1.657 1.13,3 2.521,3h4.019l0.96,-1h-5c-0.898,-0.047 -1.289,-0.638 -1.5,-1.5h5.54l0.96,-1h-6.5c0.213,-0.861 0.592,-1.495 1.5,-1.5h4.04l0.96,-1zM34,20.998v5.426c0,0.148 0.095,0.292 0.201,0.402c0.106,0.11 0.249,0.172 0.405,0.172l3.934,0.002l1,-1l-4.54,-0.002v-4.998zM27.842,20.998c-1.591,0 -2.851,1.346 -2.851,3.003c0,1.657 1.26,2.997 2.851,2.997l3.649,-0.012l1.149,-0.988h-4.819c-1.05,0 -1.84,-0.894 -1.84,-1.999c0,-1.105 0.79,-2.001 1.84,-2.001l3.689,0.016l1.13,-1.016zM21,20.998c-0.258,0 -0.522,0.215 -0.67,0.483l-2.83,5.517h1l2.5,-5l1.691,3h-2.651l0.941,0.98l2.181,-0.006l0.658,1.025l1.081,-0.009l-3.277,-5.507c-0.23,-0.369 -0.374,-0.483 -0.624,-0.483zM10,20.998v6h1v-5h3c0.515,0 1,0.464 1,1c0,0.536 -0.485,1 -1,1h-2.5l3.481,3h1.519l-2.5,-2l0.337,-0.009c0.74,0.001 1.663,-0.87 1.663,-1.991c0,-1.121 -0.687,-1.986 -1.553,-2zM2.882,20.998c-1.591,0 -2.882,1.344 -2.882,3c0,1.656 1.291,3 2.882,3h2.878c1.591,0 3.24,-1.343 3.24,-3c0,-1.657 -1.649,-3 -3.24,-3z"></path></g></g></svg>