<svg xmlns="http://www.w3.org/2000/svg" xmlns:xlink="http://www.w3.org/1999/xlink" viewBox="0,0,255.99431,255.99431" width="100px" height="100px" fill-rule="nonzero"><g fill="#ffbb5c" fill-rule="nonzero" stroke="none" stroke-width="1" stroke-linecap="butt" stroke-linejoin="miter" stroke-miterlimit="10" stroke-dasharray="" stroke-dashoffset="0" font-family="none" font-weight="none" font-size="none" text-anchor="none" style="mix-blend-mode: normal"><g transform="scale(5.12,5.12)"><path d="M8,7c-3.31,0 -6,2.69 -6,6v20c0,2.97 2.16,5.44016 5,5.91016v-2.04102c-1.73,-0.44 -3,-2.00914 -3,-3.86914v-20c0,-2.21 1.79,-4 4,-4h33c2.21,0 4,1.79 4,4v20c0,1.86 -1.27,3.42914 -3,3.86914v2.04102c2.84,-0.47 5,-2.94016 5,-5.91016v-20c0,-3.31 -2.69,-6 -6,-6zM36.5,15c-1.381,0 -2.5,1.119 -2.5,2.5v24c0,1.381 1.119,2.5 2.5,2.5c1.381,0 2.5,-1.119 2.5,-2.5v-24c0,-1.381 -1.119,-2.5 -2.5,-2.5zM20.5,21c-1.381,0 -2.5,1.119 -2.5,2.5v18c0,1.381 1.119,2.5 2.5,2.5c1.381,0 2.5,-1.119 2.5,-2.5v-18c0,-1.381 -1.119,-2.5 -2.5,-2.5zM28.5,25c-1.381,0 -2.5,1.119 -2.5,2.5v14c0,1.381 1.119,2.5 2.5,2.5c1.381,0 2.5,-1.119 2.5,-2.5v-14c0,-1.381 -1.119,-2.5 -2.5,-2.5zM12.5,30c-1.381,0 -2.5,1.119 -2.5,2.5v9c0,1.381 1.119,2.5 2.5,2.5c1.381,0 2.5,-1.119 2.5,-2.5v-9c0,-1.381 -1.119,-2.5 -2.5,-2.5z"></path></g></g></svg>