<svg xmlns="http://www.w3.org/2000/svg" xmlns:xlink="http://www.w3.org/1999/xlink" viewBox="0,0,255.99431,255.99431" width="100px" height="100px" fill-rule="nonzero"><g fill="#ffbb5c" fill-rule="nonzero" stroke="none" stroke-width="1" stroke-linecap="butt" stroke-linejoin="miter" stroke-miterlimit="10" stroke-dasharray="" stroke-dashoffset="0" font-family="none" font-weight="none" font-size="none" text-anchor="none" style="mix-blend-mode: normal"><g transform="scale(5.12,5.12)"><path d="M5,2c-0.55226,0.00006 -0.99994,0.44774 -1,1v13c0.00043,0.36567 0.20041,0.70195 0.52148,0.87695l11,6c0.30968,0.16869 0.68531,0.16183 0.98861,-0.01807c0.3033,-0.1799 0.48945,-0.50624 0.4899,-0.85888v-13c-0.00043,-0.36567 -0.20041,-0.70195 -0.52148,-0.87695l-11,-6c-0.1467,-0.08039 -0.31123,-0.1227 -0.47852,-0.12305zM20,10c-0.55226,0.00006 -0.99994,0.44774 -1,1v13c0.00043,0.36567 0.20041,0.70195 0.52148,0.87695l11,6c0.30968,0.16869 0.68531,0.16183 0.98861,-0.01807c0.3033,-0.1799 0.48945,-0.50624 0.4899,-0.85888v-13c-0.00043,-0.36567 -0.20041,-0.70195 -0.52148,-0.87695l-11,-6c-0.1467,-0.08039 -0.31123,-0.1227 -0.47852,-0.12305zM45.9707,10c-0.15734,0.00509 -0.31125,0.04725 -0.44922,0.12305l-11,6c-0.32108,0.175 -0.52105,0.51128 -0.52148,0.87695v13c0.00046,0.35264 0.1866,0.67898 0.4899,0.85888c0.3033,0.1799 0.67894,0.18677 0.98861,0.01807l11,-6c0.32108,-0.175 0.52105,-0.51128 0.52148,-0.87695v-13c0.00009,-0.27036 -0.10929,-0.52924 -0.3032,-0.71764c-0.19392,-0.1884 -0.45584,-0.29025 -0.72609,-0.28236zM20,27c-0.55226,0.00006 -0.99994,0.44774 -1,1v13c0.00043,0.36567 0.20041,0.70195 0.52148,0.87695l11,6c0.30968,0.16869 0.68531,0.16183 0.98861,-0.01807c0.3033,-0.1799 0.48945,-0.50624 0.4899,-0.85888v-13c-0.00043,-0.36567 -0.20041,-0.70195 -0.52148,-0.87695l-11,-6c-0.1467,-0.08039 -0.31123,-0.1227 -0.47852,-0.12305z"></path></g></g></svg>